<svg xmlns="http://www.w3.org/2000/svg" viewBox="0 0 256 256"><circle cx="128" cy="128" r="116" fill="#e8f7f3"/><rect x="48" y="28" width="160" height="200" rx="24" fill="#176b66"/><rect x="68" y="48" width="120" height="42" rx="9" fill="#d9fff7"/><path d="M80 69h96" stroke="#4abaaa" stroke-width="8" stroke-linecap="round"/><g fill="#f7c94b"><rect x="68" y="108" width="28" height="28" rx="6"/><rect x="114" y="108" width="28" height="28" rx="6"/><rect x="160" y="108" width="28" height="28" rx="6"/><rect x="68" y="150" width="28" height="28" rx="6"/><rect x="114" y="150" width="28" height="28" rx="6"/><rect x="160" y="150" width="28" height="70" rx="6"/><rect x="68" y="192" width="74" height="28" rx="6"/></g><path d="M122 51v38M111 59c0-7 7-11 17-11s17 4 17 11-6 10-17 10-17 4-17 11 7 10 17 10 17-4 17-10" fill="none" stroke="#176b66" stroke-width="7" stroke-linecap="round"/></svg>
