<svg xmlns="http://www.w3.org/2000/svg" viewBox="0 0 256 256"><circle cx="128" cy="128" r="116" fill="#fff4df"/><circle cx="80" cy="73" r="30" fill="#f5ad74"/><circle cx="176" cy="73" r="30" fill="#8e5b3e"/><path d="M35 178c0-43 20-72 50-72s50 29 50 72" fill="#4f8fea"/><path d="M121 178c0-43 20-72 50-72s50 29 50 72" fill="#66b96b"/><path d="M71 168c19-20 35-24 57-7 22-17 38-13 57 7" fill="none" stroke="#f5ad74" stroke-width="26" stroke-linecap="round"/><path d="m106 156 22 19 22-19" fill="#fff" stroke="#d88755" stroke-width="5" stroke-linejoin="round"/><path d="M54 63c8-24 48-28 55 4-18-7-35-8-55-4M148 67c4-30 44-37 57-7-20-6-38-4-57 7" fill="#3b2a22"/></svg>
