<svg xmlns="http://www.w3.org/2000/svg" viewBox="0 0 256 256"><circle cx="128" cy="128" r="116" fill="#fff0f4"/><path d="M34 50h188v156H34z" fill="#8d2f5d"/><path d="M34 50c35 39 45 91 45 156H34zM222 50c-35 39-45 91-45 156h45z" fill="#d74e76"/><path d="M94 79c-28 7-40 38-30 70 9 29 36 48 60 35 25-14 26-54 10-78-10-17-25-31-40-27Z" fill="#ffd55c"/><path d="M162 79c28 7 40 38 30 70-9 29-36 48-60 35-25-14-26-54-10-78 10-17 25-31 40-27Z" fill="#9ed7ef"/><path d="M80 118c9-9 20-9 29 0M147 117c9-8 20-8 29 0" fill="none" stroke="#472a4e" stroke-width="7" stroke-linecap="round"/><path d="M84 151c14 16 34 16 48 0M144 154c10-11 22-11 32 0" fill="none" stroke="#472a4e" stroke-width="7" stroke-linecap="round"/><circle cx="128" cy="35" r="11" fill="#ffd55c"/></svg>
