<svg xmlns="http://www.w3.org/2000/svg" viewBox="0 0 256 256"><circle cx="128" cy="128" r="116" fill="#dff4ff"/><path d="M15 172c38-31 72-39 105-23 42 20 78 14 121-19v82H15z" fill="#76c4e8"/><path d="M37 77c20-23 51-28 76-11-15 1-26 7-34 18-15-11-27-13-42-7M165 55c18-17 41-16 59 0-12 0-20 4-28 11-10-8-19-11-31-11" fill="#fff"/><path d="m50 141 57-24 34-61 21 4-14 57 55 19c12 4 12 17 0 21l-56 8-28 42-18-4 11-41-57-4c-13-1-16-12-5-17Z" fill="#2d5c9c"/><path d="m139 117-27 1 25-45 9 2Z" fill="#e8eef5"/><circle cx="132" cy="143" r="10" fill="#f5c542"/></svg>
