<svg xmlns="http://www.w3.org/2000/svg" viewBox="0 0 256 256"><circle cx="128" cy="128" r="116" fill="#fff4df"/><path d="M96 35h64c0 24-13 34-13 48 0 10 19 26 26 45 16 45-4 93-45 93s-61-48-45-93c7-19 26-35 26-45 0-14-13-24-13-48Z" fill="#b96842"/><path d="M109 48h38M100 116c20 12 36 12 56 0M91 156c25 17 49 17 74 0" fill="none" stroke="#f5c863" stroke-width="10" stroke-linecap="round"/><path d="M103 82c-34 2-47 22-37 50 8 22 25 27 38 14M153 82c34 2 47 22 37 50-8 22-25 27-38 14" fill="none" stroke="#8f472f" stroke-width="12"/><circle cx="128" cy="136" r="15" fill="#f5c863"/><path d="m210 46 5 14 14 5-14 5-5 14-5-14-14-5 14-5Z" fill="#f4b928"/></svg>
