<svg xmlns="http://www.w3.org/2000/svg" viewBox="0 0 256 256"><circle cx="128" cy="128" r="116" fill="#edf3dc"/><path d="M65 118c0-53 27-86 63-86s63 33 63 86v17H65z" fill="#5f7e3a"/><path d="M51 128h154v27H51z" fill="#4a642f"/><path d="M84 155h88v42c0 25-20 37-44 37s-44-12-44-37Z" fill="#d6a06c"/><path d="M95 181c8-8 17-8 25 0M136 181c8-8 17-8 25 0M111 207c11 7 23 7 34 0" fill="none" stroke="#4e392d" stroke-width="7" stroke-linecap="round"/><path d="m128 51 8 16 18 3-13 13 3 18-16-9-16 9 3-18-13-13 18-3Z" fill="#f4d45a"/><path d="M35 218h186" stroke="#5f7e3a" stroke-width="15" stroke-linecap="round"/></svg>
